<svg xmlns="http://www.w3.org/2000/svg" width="1280" height="800" viewBox="0 0 1280 800" role="img" aria-label="Vates Review Counter screenshot">
  <defs>
    <linearGradient id="page" x1="0" x2="1280" y1="0" y2="800" gradientUnits="userSpaceOnUse">
      <stop offset="0" stop-color="#f7f8fa" />
      <stop offset="1" stop-color="#eceff3" />
    </linearGradient>
    <linearGradient id="panel" x1="0" x2="320" y1="0" y2="420" gradientUnits="userSpaceOnUse">
      <stop offset="0" stop-color="#25274c" />
      <stop offset="1" stop-color="#1a1b38" />
    </linearGradient>
    <filter id="shadow" x="-20%" y="-20%" width="140%" height="140%">
      <feDropShadow dx="0" dy="14" stdDeviation="24" flood-color="#101124" flood-opacity="0.24" />
    </filter>
  </defs>

  <rect width="1280" height="800" fill="url(#page)" />
  <rect x="0" y="0" width="1280" height="56" fill="#24292f" />
  <circle cx="34" cy="28" r="10" fill="#8f82ff" />
  <rect x="60" y="19" width="230" height="18" rx="9" fill="#d0d7de" opacity="0.24" />
  <rect x="328" y="18" width="84" height="20" rx="10" fill="#d0d7de" opacity="0.18" />
  <rect x="430" y="18" width="70" height="20" rx="10" fill="#d0d7de" opacity="0.18" />
  <rect x="520" y="18" width="110" height="20" rx="10" fill="#d0d7de" opacity="0.18" />

  <rect x="64" y="104" width="760" height="34" rx="8" fill="#24292f" opacity="0.16" />
  <rect x="64" y="166" width="850" height="52" rx="8" fill="#ffffff" stroke="#d0d7de" />
  <rect x="92" y="185" width="480" height="14" rx="7" fill="#57606a" opacity="0.38" />
  <rect x="64" y="246" width="690" height="52" rx="8" fill="#ffffff" stroke="#d0d7de" />
  <rect x="92" y="265" width="360" height="14" rx="7" fill="#57606a" opacity="0.32" />
  <rect x="64" y="326" width="815" height="52" rx="8" fill="#ffffff" stroke="#d0d7de" />
  <rect x="92" y="345" width="530" height="14" rx="7" fill="#57606a" opacity="0.32" />
  <rect x="64" y="426" width="690" height="190" rx="10" fill="#ffffff" stroke="#d0d7de" />
  <rect x="92" y="458" width="260" height="16" rx="8" fill="#24292f" opacity="0.18" />
  <rect x="92" y="500" width="560" height="12" rx="6" fill="#57606a" opacity="0.22" />
  <rect x="92" y="530" width="470" height="12" rx="6" fill="#57606a" opacity="0.22" />
  <rect x="92" y="560" width="520" height="12" rx="6" fill="#57606a" opacity="0.22" />

  <g transform="translate(900 142)">
    <rect width="320" height="440" rx="14" fill="url(#panel)" stroke="#33356a" />
    <rect width="320" height="48" rx="14" fill="#1a1b38" />
    <image href="vates-planet-source.png" x="15" y="12" width="24" height="24" preserveAspectRatio="xMidYMid meet" />
    <text x="50" y="30" fill="#fffce4" font-family="Arial, sans-serif" font-size="14" font-weight="700">Vates Reviews</text>
    <text x="244" y="31" fill="#9b9cc4" font-family="Arial, sans-serif" font-size="18">↻</text>
    <text x="282" y="31" fill="#9b9cc4" font-family="Arial, sans-serif" font-size="18">×</text>

    <text x="20" y="82" fill="#8f82ff" font-family="Arial, sans-serif" font-size="11" font-weight="700">FRONTEND</text>
    <g font-family="Arial, sans-serif" font-size="13" fill="#fffce4">
      <text x="20" y="116">Pierre Donias</text>
      <text x="20" y="150">Joris Kosacki</text>
      <text x="20" y="184">Énée Di Iorio</text>
    </g>
    <g font-family="Arial, sans-serif" font-size="12" fill="#9b9cc4">
      <text x="20" y="132">pdonias</text>
      <text x="20" y="166">J0ris-K</text>
      <text x="20" y="200">UnelDev</text>
    </g>
    <rect x="264" y="100" width="34" height="26" rx="8" fill="#be1622" />
    <text x="276" y="118" fill="#fffce4" font-family="Arial, sans-serif" font-size="14" font-weight="700">4</text>
    <rect x="264" y="134" width="34" height="26" rx="8" fill="#8f82ff" />
    <text x="276" y="152" fill="#1a1b38" font-family="Arial, sans-serif" font-size="14" font-weight="700">2</text>
    <rect x="264" y="168" width="34" height="26" rx="8" fill="#25274c" stroke="#33356a" />
    <text x="276" y="186" fill="#fffce4" font-family="Arial, sans-serif" font-size="14" font-weight="700">1</text>

    <text x="20" y="246" fill="#31a88c" font-family="Arial, sans-serif" font-size="11" font-weight="700">BACKEND</text>
    <g font-family="Arial, sans-serif" font-size="13" fill="#fffce4">
      <text x="20" y="280">Florent Beauchamp</text>
      <text x="20" y="314">Bastien Nollet</text>
      <text x="20" y="348">Mathieu Piton</text>
    </g>
    <g font-family="Arial, sans-serif" font-size="12" fill="#9b9cc4">
      <text x="20" y="296">fbeauchamp</text>
      <text x="20" y="330">b-Nollet</text>
      <text x="20" y="364">mpiton</text>
    </g>
    <rect x="264" y="264" width="34" height="26" rx="8" fill="#31a88c" />
    <text x="276" y="282" fill="#1a1b38" font-family="Arial, sans-serif" font-size="14" font-weight="700">3</text>
    <rect x="264" y="298" width="34" height="26" rx="8" fill="#25274c" stroke="#33356a" />
    <text x="276" y="316" fill="#fffce4" font-family="Arial, sans-serif" font-size="14" font-weight="700">1</text>
    <rect x="264" y="332" width="34" height="26" rx="8" fill="#25274c" stroke="#33356a" />
    <text x="276" y="350" fill="#fffce4" font-family="Arial, sans-serif" font-size="14" font-weight="700">0</text>

    <line x1="0" y1="394" x2="320" y2="394" stroke="#33356a" />
    <text x="20" y="423" fill="#9b9cc4" font-family="Arial, sans-serif" font-size="12">12 PR ouvertes · maj il y a 30 s</text>
  </g>
</svg>
